/vscmnt/brussel_pixiu_data/_data_brussel/112/vsc11236/PredSimResults/SUBJ07opt3D/trackIG/worker_12.mot
version=1
nRows=6
nColumns=50
inDegrees=yes
endheader
                time	         pelvis_tilt	         pelvis_list	     pelvis_rotation	           pelvis_tx	           pelvis_ty	           pelvis_tz	       hip_flexion_r	     hip_adduction_r	      hip_rotation_r	        knee_angle_r	       ankle_angle_r	         mtp_angle_r	       hip_flexion_l	     hip_adduction_l	      hip_rotation_l	        knee_angle_l	       ankle_angle_l	         mtp_angle_l	    lumbar_extension	      lumbar_bending	     lumbar_rotation	 ercspn_r/activation	 intobl_r/activation	 extobl_r/activation	    abd_r/activation	    add_r/activation	hamstrings_r/activation	bifemsh_r/activation	glut_max_r/activation	iliopsoas_r/activation	rect_fem_r/activation	  vasti_r/activation	gastroc_r/activation	 soleus_r/activation	tib_ant_r/activation	 ercspn_l/activation	 intobl_l/activation	 extobl_l/activation	    abd_l/activation	    add_l/activation	hamstrings_l/activation	bifemsh_l/activation	glut_max_l/activation	iliopsoas_l/activation	rect_fem_l/activation	  vasti_l/activation	gastroc_l/activation	 soleus_l/activation	tib_ant_l/activation	
          0.00000000	         -9.88216298	         -1.76532307	          4.33211297	          0.00000000	          0.84920801	         -0.00307526	         31.34452960	          0.83702143	         -0.08328623	         -0.60974803	          4.58639648	          0.36671478	         -8.89082284	         -0.54015995	          3.81037303	        -14.62054797	         -0.93787384	         35.01629026	        -13.01559109	          1.97272789	         -5.87235337	          0.15212258	          0.05123947	          0.01000000	          0.07866239	          0.22682885	          0.18629314	          0.34367157	          0.07318390	          0.02841036	          0.01000000	          0.00999999	          0.01479288	          0.00999999	          0.60830370	          0.13216912	          0.00999999	          0.00999999	          0.01685535	          0.07718415	          0.02650041	          0.11117311	          0.01479290	          0.46157972	          0.01685535	          0.01682835	          0.19264824	          0.17662818	          0.00999999	
          0.00836531	         -9.83939186	         -1.63576502	          4.29555226	          0.01672788	          0.84722002	         -0.00245581	         30.94913389	          1.03874853	          0.38525084	         -1.60687998	          3.79153936	          0.36762138	         -9.14997465	         -0.45196068	          3.63855256	        -16.22725023	         -1.76824290	         35.42196177	        -12.76349069	          2.02497376	         -6.02736913	          0.13350857	          0.04496971	          0.01000000	          0.06903711	          0.22268455	          0.16349795	          0.30161925	          0.13688511	          0.02493401	          0.01000001	          0.01139421	          0.01298282	          0.01298281	          0.58497148	          0.13221009	          0.01000000	          0.01139424	          0.01479290	          0.09775882	          0.02325801	          0.09756979	          0.01298281	          0.55130980	          0.01479290	          0.01476920	          0.16907543	          0.15501561	          0.00999999	
          0.01673063	         -9.79674349	         -1.54939355	          4.23288829	          0.03331863	          0.84523037	         -0.00186871	         30.54020092	          1.18596975	          0.88202006	         -2.90392709	          3.13146544	          0.32526571	         -9.06363737	         -0.38243718	          3.46511933	        -18.45573130	         -2.52106965	         35.52957020	        -12.53469873	          2.13431829	         -6.13042926	          0.11996039	          0.03946713	          0.00999999	          0.14914995	          0.19589025	          0.14349202	          0.26471253	          0.16669443	          0.02188304	          0.01000000	          0.00999999	          0.01139422	          0.01139421	          0.73356114	          0.16552445	          0.00999999	          0.01000003	          0.01298281	          0.08579686	          0.02041216	          0.09713900	          0.01139421	          0.48385047	          0.01298281	          0.01296201	          0.14838703	          0.13604760	          0.00999999	
          0.02509594	         -9.75866483	         -1.49800452	          4.14264536	          0.04961684	          0.84344369	         -0.00124852	         30.10994863	          1.35437244	          1.28210790	         -4.09526497	          2.37782923	          0.30333408	         -8.59443757	         -0.32803249	          3.29543370	        -21.30037561	         -3.35558021	         35.32815560	        -12.35111317	          2.28002127	         -6.18482842	          0.14671342	          0.03463786	          0.01000000	          0.20485876	          0.18297113	          0.12593406	          0.23232180	          0.21263866	          0.01920539	          0.00999999	          0.00999999	          0.01000000	          0.00999999	          0.82895231	          0.19254925	          0.00999999	          0.01000001	          0.01139421	          0.07529859	          0.01791454	          0.09013128	          0.01000000	          0.42464558	          0.01139421	          0.01137596	          0.13023010	          0.11940055	          0.00999999	
          0.03346126	         -9.72756994	         -1.47412392	          4.02513292	          0.06549012	          0.84204935	         -0.00060828	         29.71450416	          1.54924617	          1.60728996	         -5.29210446	          1.69281722	          0.26263001	         -7.73749203	         -0.28104245	          3.12668453	        -24.68994616	         -4.43700573	         34.77458298	        -12.22836244	          2.45429287	         -6.19057314	          0.16191698	          0.03039950	          0.00999999	          0.28046956	          0.17377691	          0.11052453	          0.20389445	          0.26319482	          0.01685538	          0.01000000	          0.01000000	          0.01000000	          0.00999999	          0.85465019	          0.25474647	          0.00999999	          0.01000000	          0.00999999	          0.06608491	          0.01572250	          0.07910272	          0.00999999	          0.37268511	          0.01000000	          0.00999999	          0.11429489	          0.10479046	          0.00999999	
          0.04182657	         -9.70564329	         -1.46832284	          3.88102559	          0.08081917	          0.84124680	          0.00002772	         29.39641578	          1.75905552	          1.86176952	         -6.62725224	          1.46647422	          0.22074332	         -6.50125662	         -0.23116526	          2.95336480	        -28.53427729	         -5.81289260	         33.63030550	        -12.17816740	          2.64609907	         -6.15025230	          0.16697683	          0.02667976	          0.00999999	          0.33706081	          0.18668060	          0.09724819	          0.17894553	          0.28942449	          0.01479292	          0.01000000	          0.01933489	          0.01000000	          0.00999999	          0.76179548	          0.31967513	          0.00999999	          0.01000000	          0.00999999	          0.07649977	          0.01379867	          0.06942357	          0.00999999	          0.32708263	          0.01000001	          0.00999999	          0.10030954	          0.09196809	          0.08943424	
